# xmcd
#
# Track frame offsets:
#  150
#  5162
#  24746
#  43766
#  63497
#  79729
#  99670
#  123678
#  140845
#  162616
#
# Disc length: 2455 seconds
#
# Revision: 0
# Processed by: cddbd v1.5.1PL2 Copyright (c) Steve Scherf et al.
# Submitted via: Collectorz.com Music Collector 6.9
#
DISCID=9409950a
DTITLE=Ligabue - Nome E Cognome
DYEAR=2005
DGENRE=
TTITLE0=Intro
TTITLE1=Il Giorno Dei Giorni
TTITLE2=Happy Hour
TTITLE3=L'amore Conta
TTITLE4=Cosa Vuoi Che Sia
TTITLE5=Le Donne Lo Sanno
TTITLE6=Lettera A G
TTITLE7=Vivere A Orecchio
TTITLE8=Giorno Per Giorno
TTITLE9=E Piu Forte Di Me
EXTD=
EXTT0=
EXTT1=
EXTT2=
EXTT3=
EXTT4=
EXTT5=
EXTT6=
EXTT7=
EXTT8=
EXTT9=
PLAYORDER=
